<?xml version="1.0" encoding="UTF-8"?><svg id="a" xmlns="http://www.w3.org/2000/svg" xmlns:xlink="http://www.w3.org/1999/xlink" viewBox="0 0 2956 288"><defs><style>.d{fill:none;stroke:#303030;stroke-linecap:round;stroke-miterlimit:10;stroke-width:4px;}.e{fill:url(#b);}.e,.f{stroke-width:0px;}.f{fill:url(#c);}</style><linearGradient id="b" x1="1478.5" y1="0" x2="1478.5" y2="216" gradientUnits="userSpaceOnUse"><stop offset="0" stop-color="#75b8e3"/><stop offset=".3" stop-color="#78b9e3"/><stop offset=".5" stop-color="#82bfe6"/><stop offset=".7" stop-color="#93c8ea"/><stop offset=".8" stop-color="#abd6f0"/><stop offset="1" stop-color="#c6e5f7"/></linearGradient><linearGradient id="c" x1="1478.2" y1="288" x2="1478.2" y2="126" gradientUnits="userSpaceOnUse"><stop offset="0" stop-color="#82b740"/><stop offset=".3" stop-color="#84b843"/><stop offset=".5" stop-color="#8abc4d"/><stop offset=".7" stop-color="#95c25e"/><stop offset=".9" stop-color="#a5cb76"/><stop offset="1" stop-color="#b4d48d"/></linearGradient></defs><rect class="e" x="2.5" width="2952" height="216"/><path class="f" d="m2,197.9c17-7.6,41.5-17.2,72-24.5,40.4-9.7,67.2-16.1,99-9,40.6,9,40.8,29.3,81,36,24.8,4.1,43.9-.3,81-9,48.8-11.4,51.2-20.8,90-27,18.7-3,47-7.3,81,0,35.6,7.7,36.3,19.3,72,27,33.9,7.3,62.2,3,81,0,44.1-7.1,42.6-18.4,90-27,29.6-5.4,57.9-10.6,90,0,19.9,6.6,22.9,13.1,45,18,10.5,2.3,28.4,5,63,0,36.3-5.2,62.9-14.8,72-18,6.4-2.2,81.7-27.9,153-27,75.2,1,72,30.6,144,27,14.2-.7,6.2-1.4,117-18,30.9-4.6,48.2-7.1,72-9,38.7-3.2,61.1-4.9,90,0,28.5,4.8,29.4,10.2,63,18,17,3.9,52.2,12.1,90,9,57.4-4.7,59.5-30.3,117-36,44.7-4.4,83.9,7.1,90,9,32.6,9.9,45.2,22,81,27,8.3,1.2,21.5,2.4,54,0,47.4-3.5,78.2-10.6,117-18,66.1-12.6,99.1-18.9,117-18,41.5,2,42.9,12.6,126,27,37.5,6.5,56.8,9.8,81,9,43.3-1.4,81.2-12.6,99-18,36-10.9,33-14.8,54-18,11.3-1.7,49.5-7.5,90,9,21.6,8.8,26.3,16.8,45,18,17.8,1.1,33.6-4.7,45-9,24-8.9,27.1-16.9,45-18,5.3-.3,13.8-.2,27,0,7.6.1,13.8.3,18,.5l.5,159.2H2.5l-.5-90.1Z"/><path class="d" d="m2812.9,155.3c17.8,1.1,40.9-2.2,51.1-9,27-18,72.4-21.2,90-17.9"/><path class="d" d="m2405.9,176.4c127.8-3.4,210.7-26,224.1-30,36-10.9,33-14.8,54-18,11.3-1.7,49.5-7.5,90,9,15.6,6.4,43.4,27.3,138.5,45.9"/><path class="d" d="m1713.9,166c90.7-.7,93.6-32,151.1-37.7,44.7-4.4,83.9,7.1,90,9,32.6,9.9,45.2,22,81,27,8.3,1.2,21.5,2.4,54,0,47.4-3.5,78.2-10.6,117-18,66.1-12.6,99.1-18.9,117-18,41.5,2,42.9,12.6,126,27,37.5,6.5,65.1,10.9,93.3,9.2"/><path class="d" d="m1110,187.3c6.5-1.1,54.2,2.4,117.4-7.8s177.6-29,205.6-33.1c30.9-4.6,48.2-7.1,72-9,38.7-3.2,61.1-4.9,90,0,28.5,4.8,29.4,10.2,63,18,12.5,2.9,55,13.9,215.6,30.3"/><path class="d" d="m902.9,185.8c9.6.1,28.6-1.2,44.1-3.4,36.3-5.2,62.9-14.8,72-18,6.4-2.2,81.7-27.9,153-27,75.2,1,74.6,30.7,146.6,27.1"/><path class="d" d="m562,201.8c71.1-5,93.4-9.9,97-10.5,44.1-7.1,42.6-18.4,90-27,29.6-5.4,57.9-10.6,90,0,19.9,6.6,44.6,26.5,126.1,26"/><path class="d" d="m242.7,198.4c31.3,9.6,55.2,1.7,92.3-7,48.8-11.4,51.2-20.8,90-27,18.7-3,47-7.3,81,0,35.6,7.7,36.3,19.3,72,27,15.2,3.3,38,4.6,50.5,4.4"/><path class="d" d="m2,197.9c17-7.6,41.5-17.2,72-24.5,40.4-9.7,67.2-16.1,99-9,36.3,8.1,41.8,36.2,159.7,61.4"/></svg>