<?xml version="1.0" encoding="UTF-8"?><svg id="a" xmlns="http://www.w3.org/2000/svg" xmlns:xlink="http://www.w3.org/1999/xlink" viewBox="0 0 433 288.5"><defs><style>.h{fill:#cb1f22;}.h,.i,.j,.k,.l,.m,.n,.o,.p,.q{stroke-width:0px;}.i{fill:#737373;}.j{fill:#303030;}.k{fill:#692a17;}.l{fill:url(#b);}.m{fill:url(#c);}.n{fill:url(#e);}.o{fill:url(#f);}.p{fill:url(#d);}.q{fill:url(#g);}</style><linearGradient id="b" x1="216.5" y1="3.5" x2="216.5" y2="33.5" gradientUnits="userSpaceOnUse"><stop offset=".7" stop-color="#f21f1f"/><stop offset=".8" stop-color="#cb1f22"/></linearGradient><linearGradient id="c" x1="216.5" y1="240.5" x2="216.5" y2="75.5" gradientUnits="userSpaceOnUse"><stop offset=".5" stop-color="#f21f1f"/><stop offset=".8" stop-color="#cb1f22"/></linearGradient><linearGradient id="d" x1="216.5" y1="219.5" x2="216.5" y2="249.5" gradientUnits="userSpaceOnUse"><stop offset=".2" stop-color="#f21f1f"/><stop offset=".4" stop-color="#cb1f22"/></linearGradient><linearGradient id="e" y1="75.5" y2="105.5" xlink:href="#b"/><linearGradient id="f" x1="86" y1="129.5" x2="86" y2="177.5" gradientUnits="userSpaceOnUse"><stop offset=".2" stop-color="#c6e5f7"/><stop offset=".8" stop-color="#75b8e3"/></linearGradient><linearGradient id="g" x1="347" x2="347" xlink:href="#f"/></defs><circle class="i" cx="117.5" cy="243.5" r="42"/><path class="j" d="m117.5,204.5c21.5,0,39,17.5,39,39s-17.5,39-39,39-39-17.5-39-39,17.5-39,39-39m0-6c-24.9,0-45,20.1-45,45s20.1,45,45,45,45-20.1,45-45-20.1-45-45-45h0Z"/><circle class="i" cx="315.5" cy="243.5" r="42"/><path class="j" d="m315.5,204.5c21.5,0,39,17.5,39,39s-17.5,39-39,39-39-17.5-39-39,17.5-39,39-39m0-6c-24.9,0-45,20.1-45,45s20.1,45,45,45,45-20.1,45-45-20.1-45-45-45h0Z"/><rect class="h" x="129.5" y="12.5" width="174" height="84" rx="9" ry="9"/><path class="k" d="m294.5,15.5c3.3,0,6,2.7,6,6v66c0,3.3-2.7,6-6,6h-156c-3.3,0-6-2.7-6-6V21.5c0-3.3,2.7-6,6-6h156m0-6h-156c-6.6,0-12,5.4-12,12v66c0,6.6,5.4,12,12,12h156c6.6,0,12-5.4,12-12V21.5c0-6.6-5.4-12-12-12h0Z"/><rect class="l" x="111.5" y="3.5" width="210" height="30" rx="9" ry="9"/><path class="k" d="m312.5,6.5c3.3,0,6,2.7,6,6v12c0,3.3-2.7,6-6,6H120.5c-3.3,0-6-2.7-6-6v-12c0-3.3,2.7-6,6-6h192m0-6H120.5c-6.6,0-12,5.4-12,12v12c0,6.6,5.4,12,12,12h192c6.6,0,12-5.4,12-12v-12c0-6.6-5.4-12-12-12h0Z"/><rect class="m" x="21.5" y="75.5" width="390" height="165" rx="9" ry="9"/><path class="k" d="m402.5,78.5c3.3,0,6,2.7,6,6v147c0,3.3-2.7,6-6,6H30.5c-3.3,0-6-2.7-6-6V84.5c0-3.3,2.7-6,6-6h372m0-6H30.5c-6.6,0-12,5.4-12,12v147c0,6.6,5.4,12,12,12h372c6.6,0,12-5.4,12-12V84.5c0-6.6-5.4-12-12-12h0Z"/><rect class="p" x="3.5" y="219.5" width="426" height="30" rx="9" ry="9"/><path class="k" d="m420.5,222.5c3.3,0,6,2.7,6,6v12c0,3.3-2.7,6-6,6H12.5c-3.3,0-6-2.7-6-6v-12c0-3.3,2.7-6,6-6h408m0-6H12.5c-6.6,0-12,5.4-12,12v12c0,6.6,5.4,12,12,12h408c6.6,0,12-5.4,12-12v-12c0-6.6-5.4-12-12-12h0Z"/><rect class="n" x="3.5" y="75.5" width="426" height="30" rx="9" ry="9"/><path class="k" d="m420.5,78.5c3.3,0,6,2.7,6,6v12c0,3.3-2.7,6-6,6H12.5c-3.3,0-6-2.7-6-6v-12c0-3.3,2.7-6,6-6h408m0-6H12.5c-6.6,0-12,5.4-12,12v12c0,6.6,5.4,12,12,12h408c6.6,0,12-5.4,12-12v-12c0-6.6-5.4-12-12-12h0Z"/><rect class="o" x="57.5" y="129.5" width="57" height="48" rx="9" ry="9"/><path class="j" d="m105.5,132.5c3.3,0,6,2.7,6,6v30c0,3.3-2.7,6-6,6h-39c-3.3,0-6-2.7-6-6v-30c0-3.3,2.7-6,6-6h39m0-6h-39c-6.6,0-12,5.4-12,12v30c0,6.6,5.4,12,12,12h39c6.6,0,12-5.4,12-12v-30c0-6.6-5.4-12-12-12h0Z"/><rect class="q" x="318.5" y="129.5" width="57" height="48" rx="9" ry="9"/><path class="j" d="m366.5,132.5c3.3,0,6,2.7,6,6v30c0,3.3-2.7,6-6,6h-39c-3.3,0-6-2.7-6-6v-30c0-3.3,2.7-6,6-6h39m0-6h-39c-6.6,0-12,5.4-12,12v30c0,6.6,5.4,12,12,12h39c6.6,0,12-5.4,12-12v-30c0-6.6-5.4-12-12-12h0Z"/></svg>