<?xml version="1.0" encoding="UTF-8"?><svg id="a" xmlns="http://www.w3.org/2000/svg" xmlns:xlink="http://www.w3.org/1999/xlink" viewBox="0 0 433 288.5"><defs><style>.h{fill:#737373;}.h,.i,.j,.k,.l,.m,.n,.o,.p,.q{stroke-width:0px;}.i{fill:#303030;}.j{fill:#692a17;}.k{fill:#ed6a24;}.l{fill:url(#b);}.m{fill:url(#c);}.n{fill:url(#e);}.o{fill:url(#f);}.p{fill:url(#d);}.q{fill:url(#g);}</style><linearGradient id="b" x1="45.5" y1="214.1" x2="45.5" y2="118.2" gradientUnits="userSpaceOnUse"><stop offset=".3" stop-color="#ed6a24"/><stop offset=".7" stop-color="#f28e1f"/></linearGradient><linearGradient id="c" x1="225.5" y1="209.8" x2="225.5" y2="101.3" xlink:href="#b"/><linearGradient id="d" x1="108.6" y1="44.5" x2="108.4" y2="28.1" gradientUnits="userSpaceOnUse"><stop offset=".2" stop-color="#ed6a24"/><stop offset=".4" stop-color="#f28e1f"/></linearGradient><linearGradient id="e" x1="324.3" y1="28.2" x2="324.3" y2="11.9" xlink:href="#d"/><linearGradient id="f" x1="216.5" y1="249.5" x2="216.5" y2="219.5" gradientUnits="userSpaceOnUse"><stop offset=".6" stop-color="#ed6a24"/><stop offset=".8" stop-color="#f28e1f"/></linearGradient><linearGradient id="g" x1="324.5" y1="215.4" x2="324.5" y2="76.3" gradientUnits="userSpaceOnUse"><stop offset=".2" stop-color="#ed6a24"/><stop offset=".7" stop-color="#f28e1f"/></linearGradient></defs><rect class="k" x="255.5" y="30.5" width="138" height="84" rx="9" ry="9"/><path class="j" d="m384.5,33.5c3.3,0,6,2.7,6,6v66c0,3.3-2.7,6-6,6h-120c-3.3,0-6-2.7-6-6V39.5c0-3.3,2.7-6,6-6h120m0-6h-120c-6.6,0-12,5.4-12,12v66c0,6.6,5.4,12,12,12h120c6.6,0,12-5.4,12-12V39.5c0-6.6-5.4-12-12-12h0Z"/><rect class="k" x="93.5" y="39.5" width="30" height="66" rx="9" ry="9"/><path class="j" d="m114.5,42.5c3.3,0,6,2.7,6,6v48c0,3.3-2.7,6-6,6h-12c-3.3,0-6-2.7-6-6v-48c0-3.3,2.7-6,6-6h12m0-6h-12c-6.6,0-12,5.4-12,12v48c0,6.6,5.4,12,12,12h12c6.6,0,12-5.4,12-12v-48c0-6.6-5.4-12-12-12h0Z"/><rect class="l" x="21.5" y="111.5" width="48" height="120" rx="9" ry="9"/><path class="j" d="m60.5,114.5c3.3,0,6,2.7,6,6v102c0,3.3-2.7,6-6,6h-30c-3.3,0-6-2.7-6-6v-102c0-3.3,2.7-6,6-6h30m0-6h-30c-6.6,0-12,5.4-12,12v102c0,6.6,5.4,12,12,12h30c6.6,0,12-5.4,12-12v-102c0-6.6-5.4-12-12-12h0Z"/><rect class="m" x="39.5" y="93.5" width="372" height="147" rx="9" ry="9"/><path class="j" d="m402.5,96.5c3.3,0,6,2.7,6,6v129c0,3.3-2.7,6-6,6H48.5c-3.3,0-6-2.7-6-6V102.5c0-3.3,2.7-6,6-6h354m0-6H48.5c-6.6,0-12,5.4-12,12v129c0,6.6,5.4,12,12,12h354c6.6,0,12-5.4,12-12V102.5c0-6.6-5.4-12-12-12h0Z"/><rect class="p" x="75.5" y="21.5" width="66" height="30" rx="9" ry="9"/><path class="j" d="m132.5,24.5c3.3,0,6,2.7,6,6v12c0,3.3-2.7,6-6,6h-48c-3.3,0-6-2.7-6-6v-12c0-3.3,2.7-6,6-6h48m0-6h-48c-6.6,0-12,5.4-12,12v12c0,6.6,5.4,12,12,12h48c6.6,0,12-5.4,12-12v-12c0-6.6-5.4-12-12-12h0Z"/><rect class="n" x="237" y="3.5" width="174.5" height="30" rx="9" ry="9"/><path class="j" d="m402.5,6.5c3.3,0,6,2.7,6,6v12c0,3.3-2.7,6-6,6h-156.5c-3.3,0-6-2.7-6-6v-12c0-3.3,2.7-6,6-6h156.5m0-6h-156.5c-6.6,0-12,5.4-12,12v12c0,6.6,5.4,12,12,12h156.5c6.6,0,12-5.4,12-12v-12c0-6.6-5.4-12-12-12h0Z"/><rect class="o" x="3.5" y="219.5" width="426" height="30" rx="9" ry="9"/><path class="j" d="m420.5,222.5c3.3,0,6,2.7,6,6v12c0,3.3-2.7,6-6,6H12.5c-3.3,0-6-2.7-6-6v-12c0-3.3,2.7-6,6-6h408m0-6H12.5c-6.6,0-12,5.4-12,12v12c0,6.6,5.4,12,12,12h408c6.6,0,12-5.4,12-12v-12c0-6.6-5.4-12-12-12h0Z"/><rect class="q" x="237.5" y="66.5" width="174" height="156" rx="9" ry="9"/><path class="j" d="m402.5,69.5c3.3,0,6,2.7,6,6v138c0,3.3-2.7,6-6,6h-156c-3.3,0-6-2.7-6-6V75.5c0-3.3,2.7-6,6-6h156m0-6h-156c-6.6,0-12,5.4-12,12v138c0,6.6,5.4,12,12,12h156c6.6,0,12-5.4,12-12V75.5c0-6.6-5.4-12-12-12h0Z"/><circle class="h" cx="329" cy="230" r="55.5"/><path class="i" d="m329,177.5c28.9,0,52.5,23.6,52.5,52.5s-23.6,52.5-52.5,52.5-52.5-23.6-52.5-52.5,23.6-52.5,52.5-52.5m0-6c-32.3,0-58.5,26.2-58.5,58.5s26.2,58.5,58.5,58.5,58.5-26.2,58.5-58.5-26.2-58.5-58.5-58.5h0Z"/><circle class="h" cx="99.5" cy="243.5" r="42"/><path class="i" d="m99.5,204.5c21.5,0,39,17.5,39,39s-17.5,39-39,39-39-17.5-39-39,17.5-39,39-39m0-6c-24.9,0-45,20.1-45,45s20.1,45,45,45,45-20.1,45-45-20.1-45-45-45h0Z"/><circle class="h" cx="207.5" cy="243.5" r="42"/><path class="i" d="m207.5,204.5c21.5,0,39,17.5,39,39s-17.5,39-39,39-39-17.5-39-39,17.5-39,39-39m0-6c-24.9,0-45,20.1-45,45s20.1,45,45,45,45-20.1,45-45-20.1-45-45-45h0Z"/></svg>