<?xml version="1.0" encoding="UTF-8"?><svg id="a" xmlns="http://www.w3.org/2000/svg" xmlns:xlink="http://www.w3.org/1999/xlink" viewBox="0 0 433 288.5"><defs><style>.d{fill:#737373;}.d,.e,.f,.g,.h{stroke-width:0px;}.e{fill:#303030;}.f{fill:#692a17;}.g{fill:url(#b);}.h{fill:url(#c);}</style><linearGradient id="b" x1="216.5" y1="201.5" x2="216.5" y2="231.5" gradientUnits="userSpaceOnUse"><stop offset=".3" stop-color="#fcd121"/><stop offset=".4" stop-color="#f8b11b"/></linearGradient><linearGradient id="c" x1="216.5" y1="219.5" x2="216.5" y2="249.5" gradientUnits="userSpaceOnUse"><stop offset=".2" stop-color="#fbcd1f"/><stop offset=".3" stop-color="#f8b11b"/></linearGradient></defs><circle class="d" cx="117.5" cy="243.5" r="42"/><path class="e" d="m117.5,204.5c21.5,0,39,17.5,39,39s-17.5,39-39,39-39-17.5-39-39,17.5-39,39-39m0-6c-24.9,0-45,20.1-45,45s20.1,45,45,45,45-20.1,45-45-20.1-45-45-45h0Z"/><circle class="d" cx="315.5" cy="243.5" r="42"/><path class="e" d="m315.5,204.5c21.5,0,39,17.5,39,39s-17.5,39-39,39-39-17.5-39-39,17.5-39,39-39m0-6c-24.9,0-45,20.1-45,45s20.1,45,45,45,45-20.1,45-45-20.1-45-45-45h0Z"/><rect class="g" x="21.5" y="201.5" width="390" height="30" rx="9" ry="9"/><path class="f" d="m402.5,204.5c3.3,0,6,2.7,6,6v12c0,3.3-2.7,6-6,6H30.5c-3.3,0-6-2.7-6-6v-12c0-3.3,2.7-6,6-6h372m0-6H30.5c-6.6,0-12,5.4-12,12v12c0,6.6,5.4,12,12,12h372c6.6,0,12-5.4,12-12v-12c0-6.6-5.4-12-12-12h0Z"/><rect class="h" x="3.5" y="219.5" width="426" height="30" rx="9" ry="9"/><path class="f" d="m420.5,222.5c3.3,0,6,2.7,6,6v12c0,3.3-2.7,6-6,6H12.5c-3.3,0-6-2.7-6-6v-12c0-3.3,2.7-6,6-6h408m0-6H12.5c-6.6,0-12,5.4-12,12v12c0,6.6,5.4,12,12,12h408c6.6,0,12-5.4,12-12v-12c0-6.6-5.4-12-12-12h0Z"/></svg>