<?xml version="1.0" encoding="UTF-8"?><svg id="a" xmlns="http://www.w3.org/2000/svg" xmlns:xlink="http://www.w3.org/1999/xlink" viewBox="0 0 433 288.5"><defs><style>.i{fill:#737373;}.i,.j,.k,.l,.m,.n,.o,.p,.q{stroke-width:0px;}.j{fill:#303030;}.k{fill:url(#b);}.l{fill:url(#c);}.m{fill:url(#e);}.n{fill:url(#f);}.o{fill:url(#d);}.p{fill:url(#h);}.q{fill:url(#g);}</style><linearGradient id="b" x1="216.5" y1="48.5" x2="216.5" y2="240.5" gradientUnits="userSpaceOnUse"><stop offset=".3" stop-color="#1293d4"/><stop offset=".8" stop-color="#1076be"/></linearGradient><linearGradient id="c" x1="216.5" y1="219.5" x2="216.5" y2="249.5" gradientUnits="userSpaceOnUse"><stop offset=".2" stop-color="#1293d4"/><stop offset=".4" stop-color="#1076be"/></linearGradient><linearGradient id="d" x1="216.5" y1="39.5" x2="216.5" y2="69.5" gradientUnits="userSpaceOnUse"><stop offset=".7" stop-color="#1293d4"/><stop offset=".8" stop-color="#1076be"/></linearGradient><linearGradient id="e" x1="81.5" y1="93.5" x2="81.5" y2="168.5" gradientUnits="userSpaceOnUse"><stop offset=".2" stop-color="#c6e5f7"/><stop offset=".8" stop-color="#75b8e3"/></linearGradient><linearGradient id="f" x1="171.5" x2="171.5" xlink:href="#e"/><linearGradient id="g" x1="261.5" x2="261.5" xlink:href="#e"/><linearGradient id="h" x1="351.5" x2="351.5" xlink:href="#e"/></defs><circle class="i" cx="315.5" cy="243.5" r="42"/><path class="j" d="m315.5,204.5c21.5,0,39,17.5,39,39s-17.5,39-39,39-39-17.5-39-39,17.5-39,39-39m0-6c-24.9,0-45,20.1-45,45s20.1,45,45,45,45-20.1,45-45-20.1-45-45-45h0Z"/><circle class="i" cx="117.5" cy="243.5" r="42"/><path class="j" d="m117.5,204.5c21.5,0,39,17.5,39,39s-17.5,39-39,39-39-17.5-39-39,17.5-39,39-39m0-6c-24.9,0-45,20.1-45,45s20.1,45,45,45,45-20.1,45-45-20.1-45-45-45h0Z"/><rect class="k" x="21.5" y="48.5" width="390" height="192" rx="9" ry="9"/><path class="j" d="m402.5,51.5c3.3,0,6,2.7,6,6v174c0,3.3-2.7,6-6,6H30.5c-3.3,0-6-2.7-6-6V57.5c0-3.3,2.7-6,6-6h372m0-6H30.5c-6.6,0-12,5.4-12,12v174c0,6.6,5.4,12,12,12h372c6.6,0,12-5.4,12-12V57.5c0-6.6-5.4-12-12-12h0Z"/><rect class="l" x="3.5" y="219.5" width="426" height="30" rx="9" ry="9"/><path class="j" d="m420.5,222.5c3.3,0,6,2.7,6,6v12c0,3.3-2.7,6-6,6H12.5c-3.3,0-6-2.7-6-6v-12c0-3.3,2.7-6,6-6h408m0-6H12.5c-6.6,0-12,5.4-12,12v12c0,6.6,5.4,12,12,12h408c6.6,0,12-5.4,12-12v-12c0-6.6-5.4-12-12-12h0Z"/><rect class="o" x="3.5" y="39.5" width="426" height="30" rx="9" ry="9"/><path class="j" d="m420.5,42.5c3.3,0,6,2.7,6,6v12c0,3.3-2.7,6-6,6H12.5c-3.3,0-6-2.7-6-6v-12c0-3.3,2.7-6,6-6h408m0-6H12.5c-6.6,0-12,5.4-12,12v12c0,6.6,5.4,12,12,12h408c6.6,0,12-5.4,12-12v-12c0-6.6-5.4-12-12-12h0Z"/><rect class="m" x="57.5" y="93.5" width="48" height="75" rx="9" ry="9"/><path class="j" d="m96.5,96.5c3.3,0,6,2.7,6,6v57c0,3.3-2.7,6-6,6h-30c-3.3,0-6-2.7-6-6v-57c0-3.3,2.7-6,6-6h30m0-6h-30c-6.6,0-12,5.4-12,12v57c0,6.6,5.4,12,12,12h30c6.6,0,12-5.4,12-12v-57c0-6.6-5.4-12-12-12h0Z"/><rect class="n" x="147.5" y="93.5" width="48" height="75" rx="9" ry="9"/><path class="j" d="m186.5,96.5c3.3,0,6,2.7,6,6v57c0,3.3-2.7,6-6,6h-30c-3.3,0-6-2.7-6-6v-57c0-3.3,2.7-6,6-6h30m0-6h-30c-6.6,0-12,5.4-12,12v57c0,6.6,5.4,12,12,12h30c6.6,0,12-5.4,12-12v-57c0-6.6-5.4-12-12-12h0Z"/><rect class="q" x="237.5" y="93.5" width="48" height="75" rx="9" ry="9"/><path class="j" d="m276.5,96.5c3.3,0,6,2.7,6,6v57c0,3.3-2.7,6-6,6h-30c-3.3,0-6-2.7-6-6v-57c0-3.3,2.7-6,6-6h30m0-6h-30c-6.6,0-12,5.4-12,12v57c0,6.6,5.4,12,12,12h30c6.6,0,12-5.4,12-12v-57c0-6.6-5.4-12-12-12h0Z"/><rect class="p" x="327.5" y="93.5" width="48" height="75" rx="9" ry="9"/><path class="j" d="m366.5,96.5c3.3,0,6,2.7,6,6v57c0,3.3-2.7,6-6,6h-30c-3.3,0-6-2.7-6-6v-57c0-3.3,2.7-6,6-6h30m0-6h-30c-6.6,0-12,5.4-12,12v57c0,6.6,5.4,12,12,12h30c6.6,0,12-5.4,12-12v-57c0-6.6-5.4-12-12-12h0Z"/></svg>