<?xml version="1.0" encoding="UTF-8"?><svg id="a" xmlns="http://www.w3.org/2000/svg" xmlns:xlink="http://www.w3.org/1999/xlink" viewBox="0 0 2957 72"><defs><style>.c{fill:#848484;stroke:#303030;stroke-miterlimit:10;stroke-width:5px;}.d{fill:#965221;}.d,.e,.f{stroke-width:0px;}.e{fill:#692a17;}.f{fill:url(#b);}</style><linearGradient id="b" x1="1478.5" y1="47.2" x2="1478.5" y2="69" gradientUnits="userSpaceOnUse"><stop offset="0" stop-color="#ca8d32"/><stop offset="1" stop-color="#965221"/></linearGradient></defs><rect class="d" x="5.5" y="3" width="2946" height="21.8" rx="6" ry="6"/><path class="e" d="m2945.5,6c1.6,0,3,1.4,3,3v9.8c0,1.6-1.4,3-3,3H11.5c-1.6,0-3-1.4-3-3v-9.8c0-1.6,1.4-3,3-3h2934m0-6H11.5C6.6,0,2.5,4.1,2.5,9v9.8c0,4.9,4.1,9,9,9h2934c4.9,0,9-4.1,9-9v-9.8c0-4.9-4.1-9-9-9h0Z"/><path class="c" d="m2945.5,50.7h-12.3c-19.9-19.6-34.3-31.8-37.5-32.7h-2.8c-4.3,0-7.9,3.2-8.6,7.3l30.5,25.4h-35.6c-19.9-19.6-34.3-31.8-37.5-32.7h-2.8c-4.3,0-7.9,3.2-8.6,7.3l30.5,25.4h-35.6c-19.9-19.6-34.3-31.8-37.5-32.7h-2.8c-4.3,0-7.9,3.2-8.6,7.3l30.5,25.4h-35.6c-19.9-19.6-34.3-31.8-37.5-32.7h-2.8c-4.3,0-7.9,3.2-8.6,7.3l30.5,25.4h-35.6c-19.9-19.6-34.3-31.8-37.5-32.7h-2.8c-4.3,0-7.9,3.2-8.6,7.3l30.5,25.4h-35.6c-19.9-19.6-34.3-31.8-37.5-32.7h-2.8c-4.3,0-7.9,3.2-8.6,7.3l30.5,25.4h-37.6c-19.9-19.6-34.3-31.8-37.5-32.7h-2.8c-4.3,0-7.9,3.2-8.6,7.3l30.5,25.4h-35.6c-19.9-19.6-34.3-31.8-37.5-32.7h-2.8c-4.3,0-7.9,3.2-8.6,7.3l30.5,25.4h-35.6c-19.9-19.6-34.3-31.8-37.5-32.7h-2.8c-4.3,0-7.9,3.2-8.6,7.3l30.5,25.4h-35.6c-19.9-19.6-34.3-31.8-37.5-32.7h-2.8c-4.3,0-7.9,3.2-8.6,7.3l30.5,25.4h-35.6c-19.9-19.6-34.3-31.8-37.5-32.7h-2.8c-4.3,0-7.9,3.2-8.6,7.3l30.5,25.4h-35.6c-19.9-19.6-34.3-31.8-37.5-32.7h-2.8c-4.3,0-7.9,3.2-8.6,7.3l30.5,25.4h-35.6c-19.9-19.6-34.3-31.8-37.5-32.7h-2.8c-4.3,0-7.9,3.2-8.6,7.3l30.5,25.4h-35.6c-19.9-19.6-34.3-31.8-37.5-32.7h-2.8c-4.3,0-7.9,3.2-8.6,7.3l30.5,25.4h-35.6c-19.9-19.6-34.3-31.8-37.5-32.7h-2.8c-4.3,0-7.9,3.2-8.6,7.3l30.5,25.4h-35.6c-19.9-19.6-34.3-31.8-37.5-32.7h-2.8c-4.3,0-7.9,3.2-8.6,7.3l30.5,25.4h-35.6c-19.9-19.6-34.3-31.8-37.5-32.7h-2.8c-4.3,0-7.9,3.2-8.6,7.3l30.5,25.4h-35.6c-19.9-19.6-34.3-31.8-37.5-32.7h-2.8c-4.3,0-7.9,3.2-8.6,7.3l30.5,25.4h-35.6c-19.9-19.6-34.3-31.8-37.5-32.7h-2.8c-4.3,0-7.9,3.2-8.6,7.3l30.5,25.4h-35.6c-19.9-19.6-34.3-31.8-37.5-32.7h-2.8c-4.3,0-7.9,3.2-8.6,7.3l30.5,25.4h-35.6c-19.9-19.6-34.3-31.8-37.5-32.7h-2.8c-4.3,0-7.9,3.2-8.6,7.3l30.5,25.4h-35.6c-19.9-19.6-34.3-31.8-37.5-32.7h-2.8c-4.3,0-7.9,3.2-8.6,7.3l30.5,25.4h-42.4c-19.9-19.6-34.3-31.8-37.5-32.7h-2.8c-4.3,0-7.9,3.2-8.6,7.3l30.5,25.4h-35.6c-19.9-19.6-34.3-31.8-37.5-32.7h-2.8c-4.3,0-7.9,3.2-8.6,7.3l30.5,25.4h-35.6c-19.9-19.6-34.3-31.8-37.5-32.7h-2.8c-4.3,0-7.9,3.2-8.6,7.3l30.5,25.4h-35.6c-19.9-19.6-34.3-31.8-37.5-32.7h-2.8c-4.3,0-7.9,3.2-8.6,7.3l30.5,25.4h-35.6c-19.9-19.6-34.3-31.8-37.5-32.7h-2.8c-4.3,0-7.9,3.2-8.6,7.3l30.5,25.4h-35.6c-19.9-19.6-34.3-31.8-37.5-32.7h-2.8c-4.3,0-7.9,3.2-8.6,7.3l30.5,25.4h-35.6c-19.9-19.6-34.3-31.8-37.5-32.7h-2.8c-4.3,0-7.9,3.2-8.6,7.3l30.5,25.4h-35.6c-19.9-19.6-34.3-31.8-37.5-32.7h-2.8c-4.3,0-7.9,3.2-8.6,7.3l30.5,25.4h-35.6c-19.9-19.6-34.3-31.8-37.5-32.7h-2.8c-4.3,0-7.9,3.2-8.6,7.3l30.5,25.4h-35.6c-19.9-19.6-34.3-31.8-37.5-32.7h-2.8c-4.3,0-7.9,3.2-8.6,7.3l30.5,25.4h-35.6c-19.9-19.6-34.3-31.8-37.5-32.7h-2.8c-4.3,0-7.9,3.2-8.6,7.3l30.5,25.4h-35.6c-19.9-19.6-34.3-31.8-37.5-32.7h-2.8c-4.3,0-7.9,3.2-8.6,7.3l30.5,25.4h-35.6c-19.9-19.6-34.3-31.8-37.5-32.7h-2.8c-4.3,0-7.9,3.2-8.6,7.3l30.5,25.4h-35.6c-19.9-19.6-34.3-31.8-37.5-32.7h-2.8c-4.3,0-7.9,3.2-8.6,7.3l30.5,25.4h-35.6c-19.9-19.6-34.3-31.8-37.5-32.7h-2.8c-4.3,0-7.9,3.2-8.6,7.3l30.5,25.4h-35.6c-19.9-19.6-34.3-31.8-37.5-32.7h-2.8c-4.3,0-7.9,3.2-8.6,7.3l30.5,25.4h-37.6c-19.9-19.6-34.3-31.8-37.5-32.7h-2.8c-4.3,0-7.9,3.2-8.6,7.3l30.5,25.4h-35.6c-19.9-19.6-34.3-31.8-37.5-32.7h-2.8c-4.3,0-7.9,3.2-8.6,7.3l30.5,25.4h-35.6c-19.9-19.6-34.3-31.8-37.5-32.7h-2.8c-4.3,0-7.9,3.2-8.6,7.3l30.5,25.4h-35.6c-19.9-19.6-34.3-31.8-37.5-32.7h-2.8c-4.3,0-7.9,3.2-8.6,7.3l30.5,25.4h-35.6c-19.9-19.6-34.3-31.8-37.5-32.7h-2.8c-4.3,0-7.9,3.2-8.6,7.3l30.5,25.4h-35.6c-19.9-19.6-34.3-31.8-37.5-32.7h-2.8c-4.3,0-7.9,3.2-8.6,7.3l30.5,25.4h-35.6c-19.9-19.6-34.3-31.8-37.5-32.7h-2.8c-4.3,0-7.9,3.2-8.6,7.3l30.5,25.4h-35.6c-19.9-19.6-34.3-31.8-37.5-32.7h-2.8c-4.3,0-7.9,3.2-8.6,7.3l30.5,25.4h-35.6c-19.9-19.6-34.3-31.8-37.5-32.7h-2.8c-4.3,0-7.9,3.2-8.6,7.3l30.5,25.4h-35.6c-19.9-19.6-34.3-31.8-37.5-32.7h-2.8c-4.3,0-7.9,3.2-8.6,7.3l30.5,25.4h-35.6c-19.9-19.6-34.3-31.8-37.5-32.7h-2.8c-4.3,0-7.9,3.2-8.6,7.3l30.5,25.4h-35.6c-19.9-19.6-34.3-31.8-37.5-32.7h-2.8c-4.3,0-7.9,3.2-8.6,7.3l30.5,25.4h-35.6c-19.9-19.6-34.3-31.8-37.5-32.7h-2.8c-4.3,0-7.9,3.2-8.6,7.3l30.5,25.4h-35.6c-19.9-19.6-34.3-31.8-37.5-32.7h-2.8c-4.3,0-7.9,3.2-8.6,7.3l30.5,25.4h-35.6c-19.9-19.6-34.3-31.8-37.5-32.7h-2.8c-4.3,0-7.9,3.2-8.6,7.3l30.5,25.4h-35.6C40.4,31.1,26.1,18.9,22.9,18h-2.8c-4.3,0-7.9,3.2-8.6,7.3l30.5,25.4H11.5c-5,0-9,4-9,9s4,9,9,9h2934c4.9,0,9-4,9-9s-4.1-9-9-9Z"/><rect class="f" x="5.5" y="47.2" width="2946" height="21.8" rx="6" ry="6"/><path class="e" d="m2945.5,50.2c1.6,0,3,1.4,3,3v9.8c0,1.6-1.4,3-3,3H11.5c-1.6,0-3-1.4-3-3v-9.8c0-1.6,1.4-3,3-3h2934m0-6H11.5c-4.9,0-9,4-9,9v9.8c0,5,4.1,9,9,9h2934c4.9,0,9-4,9-9v-9.8c0-5-4.1-9-9-9h0Z"/></svg>